<svg width="104" height="124" viewBox="0 0 104 124" fill="none" xmlns="http://www.w3.org/2000/svg">
<path d="M43.4401 106.476L88.6583 61.258L101.437 74.0371L56.2193 119.255C53.3962 122.078 48.819 122.078 45.996 119.255L43.4401 116.699C40.6171 113.876 40.6171 109.299 43.4401 106.476Z" fill="white"/>
<path d="M2.63697 75.429C1.9312 74.7232 1.9312 73.579 2.63697 72.8732L49.5131 25.9971C50.2189 25.2913 51.3631 25.2913 52.0689 25.9971L86.6723 60.6004C87.378 61.3062 87.378 62.4505 86.6723 63.1562L42.1625 107.666C41.8985 107.93 41.7227 108.269 41.6594 108.638L41.3976 110.159C41.1492 111.604 39.375 112.167 38.3386 111.131L2.63697 75.429Z" fill="#6E74FF"/>
<path fill-rule="evenodd" clip-rule="evenodd" d="M43.3473 120.624C43.3114 120.593 43.2764 120.561 43.2425 120.527L3.26004 80.5446C-0.268812 77.0158 -0.268807 71.2944 3.26004 67.7655L46.7058 24.3198C48.8231 22.2024 52.2559 22.2024 54.3732 24.3198L89.9033 59.8499C89.922 59.8685 89.9402 59.8875 89.9579 59.9068C89.9992 59.9414 90.0394 59.978 90.0782 60.0169C90.784 60.7226 90.784 61.8669 90.0782 62.5727L44.0766 108.574C41.9593 110.692 41.9593 114.124 44.0766 116.242L46.6324 118.798C48.7498 120.915 52.1826 120.915 54.2999 118.798L100.301 72.796C101.007 72.0902 102.152 72.0902 102.857 72.796C103.563 73.5017 103.563 74.646 102.857 75.3518L56.8557 121.353C53.3269 124.882 47.6055 124.882 44.0766 121.353L43.3473 120.624ZM5.81587 70.3214L49.2616 26.8756C49.9674 26.1698 51.1116 26.1698 51.8174 26.8756L86.2405 61.2987L41.5208 106.018C40.0806 107.459 39.2282 109.264 38.9635 111.136L5.81586 77.9888C3.69855 75.8715 3.69855 72.4387 5.81587 70.3214Z" fill="#2328A4"/>
<path d="M50.459 112.415C49.7532 111.709 49.7532 110.565 50.459 109.859L93.908 66.4104C94.6138 65.7046 95.758 65.7046 96.4638 66.4104C97.1696 67.1161 97.1696 68.2604 96.4638 68.9662L53.0148 112.415C52.309 113.121 51.1648 113.121 50.459 112.415Z" fill="#2328A4"/>
<path d="M50.0843 2.3872C50.2368 2.01129 50.7691 2.01129 50.9216 2.3872L54.4649 11.1194C55.9339 14.7397 58.8055 17.6114 62.4258 19.0804L71.1581 22.6237C71.534 22.7762 71.534 23.3084 71.1581 23.461L62.4258 27.0042C58.8055 28.4732 55.9339 31.3449 54.4649 34.9652L50.9216 43.6974C50.7691 44.0733 50.2368 44.0733 50.0843 43.6974L46.541 34.9652C45.072 31.3449 42.2004 28.4732 38.5801 27.0042L29.8478 23.461C29.4719 23.3084 29.4719 22.7762 29.8478 22.6236L38.5801 19.0804C42.2004 17.6114 45.072 14.7397 46.541 11.1194L50.0843 2.3872Z" fill="#FFF0BB"/>
<path fill-rule="evenodd" clip-rule="evenodd" d="M48.4097 1.70769C49.1723 -0.171876 51.8336 -0.17185 52.5962 1.70769L56.1395 10.4399C57.4249 13.6077 59.9376 16.1204 63.1053 17.4058L71.8376 20.949C73.7171 21.7117 73.7171 24.3729 71.8376 25.1356L63.1053 28.6788C59.9376 29.9642 57.4249 32.4769 56.1395 35.6447L52.5962 44.3769C51.8336 46.2565 49.1723 46.2565 48.4097 44.3769L44.8664 35.6447C43.581 32.4769 41.0683 29.9642 37.9006 28.6788L29.1683 25.1356C27.2888 24.3729 27.2888 21.7117 29.1683 20.949L37.9006 17.4058C41.0683 16.1204 43.581 13.6077 44.8664 10.4399L48.4097 1.70769ZM50.503 6.16201L48.2157 11.7989C46.5631 15.8718 43.3324 19.1024 39.2596 20.755L33.6227 23.0423L39.2596 25.3296C43.3324 26.9822 46.5631 30.2128 48.2157 34.2857L50.503 39.9226L52.7902 34.2857C54.4429 30.2128 57.6735 26.9822 61.7463 25.3296L67.3832 23.0423L61.7463 20.755C57.6735 19.1024 54.4429 15.8718 52.7902 11.7989L50.503 6.16201Z" fill="#FFC700"/>
<path d="M38.7804 49.9824C38.7804 48.9842 37.9713 48.1751 36.9732 48.1751C35.975 48.1751 35.1659 48.9842 35.1659 49.9824V51.7896H33.3587C32.3606 51.7896 31.5514 52.5987 31.5514 53.5968C31.5514 54.5949 32.3606 55.4041 33.3587 55.4041H35.1659V57.2113C35.1659 58.2094 35.975 59.0186 36.9732 59.0186C37.9713 59.0186 38.7804 58.2094 38.7804 57.2113V55.4041H40.5876C41.5857 55.4041 42.3949 54.5949 42.3949 53.5968C42.3949 52.5987 41.5857 51.7896 40.5876 51.7896H38.7804V49.9824Z" fill="#FFC700"/>
<path d="M78.6695 1.80724C78.6695 0.809129 77.8604 0 76.8623 0C75.8642 0 75.0551 0.809129 75.0551 1.80724V4.96991C75.0551 5.96802 75.8642 6.77715 76.8623 6.77715C77.8604 6.77715 78.6695 5.96802 78.6695 4.96991V1.80724Z" fill="#FFC700"/>
<path d="M78.6695 13.1025C78.6695 12.1044 77.8604 11.2952 76.8623 11.2952C75.8642 11.2952 75.0551 12.1044 75.0551 13.1025V16.2652C75.0551 17.2633 75.8642 18.0724 76.8623 18.0724C77.8604 18.0724 78.6695 17.2633 78.6695 16.2652V13.1025Z" fill="#FFC700"/>
<path d="M69.6334 7.22896C68.6352 7.22896 67.8261 8.03809 67.8261 9.0362C67.8261 10.0343 68.6352 10.8434 69.6334 10.8434H72.796C73.7941 10.8434 74.6033 10.0343 74.6033 9.0362C74.6033 8.03809 73.7941 7.22896 72.796 7.22896H69.6334Z" fill="#FFC700"/>
<path d="M80.9286 7.22896C79.9305 7.22896 79.1214 8.03809 79.1214 9.0362C79.1214 10.0343 79.9305 10.8434 80.9286 10.8434H84.0913C85.0894 10.8434 85.8985 10.0343 85.8985 9.0362C85.8985 8.03809 85.0894 7.22896 84.0913 7.22896H80.9286Z" fill="#FFC700"/>
</svg>
